<mxfile host="app.diagrams.net" modified="2022-01-26T06:03:47.913Z" agent="5.0 (Windows NT 10.0; Win64; x64) AppleWebKit/537.36 (KHTML, like Gecko) Chrome/97.0.4692.99 Safari/537.36" etag="PDfTTjJlIWRebxP0O5rM" version="16.4.7" type="github">
  <diagram id="qwBkrwLGmvcNiBW8saGy" name="Page-1">
    <mxGraphModel dx="1888" dy="547" grid="1" gridSize="10" guides="1" tooltips="1" connect="1" arrows="1" fold="1" page="1" pageScale="1" pageWidth="850" pageHeight="1100" math="0" shadow="0">
      <root>
        <mxCell id="0" />
        <mxCell id="1" parent="0" />
        <mxCell id="dhDkiW-WUZA85FCOLk2x-30" style="edgeStyle=orthogonalEdgeStyle;rounded=0;orthogonalLoop=1;jettySize=auto;html=1;exitX=0.5;exitY=1;exitDx=0;exitDy=0;startArrow=none;startFill=0;endArrow=classic;endFill=1;fillColor=#f8cecc;strokeColor=#b85450;" edge="1" parent="1" source="dhDkiW-WUZA85FCOLk2x-27" target="dhDkiW-WUZA85FCOLk2x-28">
          <mxGeometry relative="1" as="geometry" />
        </mxCell>
        <mxCell id="dhDkiW-WUZA85FCOLk2x-27" value="" style="shape=image;html=1;verticalAlign=top;verticalLabelPosition=bottom;labelBackgroundColor=#ffffff;imageAspect=0;aspect=fixed;image=https://cdn4.iconfinder.com/data/icons/essential-app-2/16/cash-money-coin-value-128.png;fillColor=none;" vertex="1" parent="1">
          <mxGeometry x="400" y="250" width="78" height="78" as="geometry" />
        </mxCell>
        <mxCell id="dhDkiW-WUZA85FCOLk2x-32" value="" style="edgeStyle=orthogonalEdgeStyle;rounded=0;orthogonalLoop=1;jettySize=auto;html=1;startArrow=none;startFill=0;endArrow=classic;endFill=1;" edge="1" parent="1" source="dhDkiW-WUZA85FCOLk2x-28" target="dhDkiW-WUZA85FCOLk2x-31">
          <mxGeometry relative="1" as="geometry" />
        </mxCell>
        <mxCell id="dhDkiW-WUZA85FCOLk2x-28" value="Employees" style="rounded=0;whiteSpace=wrap;html=1;fillColor=none;" vertex="1" parent="1">
          <mxGeometry x="241.5" y="450" width="395" height="60" as="geometry" />
        </mxCell>
        <mxCell id="dhDkiW-WUZA85FCOLk2x-31" value="Effort&amp;nbsp;" style="whiteSpace=wrap;html=1;fillColor=none;rounded=0;" vertex="1" parent="1">
          <mxGeometry x="-96" y="450" width="120" height="60" as="geometry" />
        </mxCell>
      </root>
    </mxGraphModel>
  </diagram>
</mxfile>
